<?xml version="1.0" standalone="no"?>
<!DOCTYPE svg PUBLIC "-//W3C//DTD SVG 20010904//EN"
 "http://www.w3.org/TR/2001/REC-SVG-20010904/DTD/svg10.dtd">
<svg version="1.0" xmlns="http://www.w3.org/2000/svg"
 width="400.000000pt" height="400.000000pt" viewBox="0 0 400.000000 400.000000"
 preserveAspectRatio="xMidYMid meet">
<metadata>
Created by potrace 1.14, written by Peter Selinger 2001-2017
</metadata>
<g transform="translate(0.000000,400.000000) scale(0.100000,-0.100000)"
fill="#000000" stroke="none">
<path d="M1910 3883 c-118 -19 -224 -76 -315 -167 -106 -107 -156 -223 -160
-374 -6 -171 44 -301 160 -418 114 -115 225 -164 385 -169 200 -7 382 84 488
244 77 116 103 208 98 346 -7 156 -55 265 -166 376 -109 109 -225 160 -375
164 -49 1 -101 0 -115 -2z m135 -109 c-32 -47 -32 -77 2 -108 21 -20 28 -36
29 -72 2 -49 23 -74 58 -68 27 4 37 24 31 61 -5 29 -3 33 20 39 29 7 155 -3
188 -15 18 -7 15 -9 -18 -15 -22 -4 -51 -14 -64 -23 -20 -13 -22 -20 -17 -58
7 -41 5 -45 -28 -70 -29 -22 -34 -30 -26 -46 6 -10 19 -23 30 -29 16 -9 24 -5
47 20 38 43 68 37 113 -22 19 -26 43 -60 53 -77 l18 -30 -51 23 c-52 24 -90
24 -90 1 0 -30 -32 -47 -75 -41 -38 6 -42 4 -54 -20 -10 -22 -9 -31 4 -50 16
-24 27 -28 79 -24 l29 2 -7 -79 c-3 -43 -10 -91 -15 -108 l-8 -30 -13 42 c-19
62 -43 85 -76 72 -36 -13 -61 -3 -79 32 -19 35 -37 37 -63 4 -23 -29 -19 -72
8 -80 35 -11 31 -35 -15 -79 -41 -41 -115 -92 -115 -80 0 3 8 21 19 42 23 46
19 71 -14 98 -29 23 -36 48 -24 80 10 27 -6 44 -42 44 -34 0 -47 -16 -45 -58
1 -39 -9 -51 -50 -53 -44 -3 -148 12 -158 22 -6 6 -3 9 7 9 24 0 94 37 100 52
2 7 2 27 0 44 -4 25 1 35 27 57 31 26 31 28 16 51 -25 39 -50 41 -84 6 -37
-37 -44 -37 -79 -2 -28 27 -93 115 -93 126 0 3 16 -3 35 -14 57 -32 91 -26
115 19 11 21 17 23 55 18 40 -6 44 -4 55 22 18 44 -8 79 -63 83 l-42 3 1 50
c0 67 13 145 23 145 5 0 12 -15 15 -33 3 -19 15 -43 26 -55 17 -18 25 -20 46
-11 36 13 61 3 79 -32 18 -34 37 -37 65 -9 27 27 25 66 -5 92 -14 12 -25 24
-25 28 0 17 147 140 167 140 1 0 -9 -16 -22 -36z"/>
<path d="M1950 3523 c-73 -25 -119 -65 -144 -125 -59 -140 59 -298 211 -286
222 19 264 318 57 404 -33 14 -95 17 -124 7z m105 -27 c30 -3 95 -60 114 -99
33 -69 23 -142 -30 -201 -111 -127 -337 -34 -324 134 8 102 114 191 205 172
14 -2 30 -5 35 -6z"/>
<path d="M3218 2807 c-239 -73 -398 -279 -404 -523 -1 -50 4 -117 12 -150 46
-198 208 -368 400 -419 75 -20 176 -26 239 -14 28 5 60 11 73 14 12 2 57 20
99 41 140 67 255 211 297 374 21 80 14 228 -14 310 -58 170 -187 301 -356 361
-93 33 -247 36 -346 6z m223 -187 c-21 -94 4 -172 95 -302 73 -104 95 -155 95
-221 3 -223 -275 -343 -428 -185 -126 130 -106 321 56 543 47 64 181 209 187
202 2 -1 -1 -18 -5 -37z"/>
<path d="M3514 2233 c2 -10 -4 -43 -13 -74 -20 -62 -14 -94 19 -104 57 -18 78
65 38 145 -24 46 -50 66 -44 33z"/>
<path d="M540 2804 c-236 -37 -414 -197 -472 -424 -34 -138 -7 -321 67 -435
165 -258 473 -342 750 -206 75 37 178 133 220 206 101 171 110 373 24 552 -68
142 -239 273 -394 301 -96 18 -116 18 -195 6z m123 -108 c18 -7 41 -23 51 -35
16 -18 27 -20 65 -16 63 8 108 -18 140 -79 13 -25 30 -46 37 -46 18 0 43 -38
37 -59 -3 -11 9 -31 31 -53 41 -41 53 -78 39 -129 -8 -30 -7 -41 5 -53 20 -20
18 -62 -3 -86 -24 -26 -66 -25 -96 1 -21 18 -32 20 -82 15 -75 -8 -144 -38
-156 -68 -12 -32 -21 -129 -15 -155 7 -26 63 -54 113 -58 20 -1 44 -3 54 -4
31 -2 18 -21 -15 -21 -30 -1 -31 -2 -15 -14 30 -23 19 -29 -43 -22 -50 6 -60
4 -60 -8 0 -26 -18 -27 -48 -1 -38 32 -56 32 -71 -1 -9 -21 -14 -24 -26 -14
-8 7 -15 18 -15 26 0 26 -23 26 -45 -1 l-22 -28 -11 31 c-12 35 -22 37 -114
33 -27 -1 -48 0 -48 4 0 10 103 54 112 49 5 -3 23 0 40 7 30 12 30 13 26 75
-4 71 -27 105 -87 130 -47 20 -66 18 -81 -11 -27 -50 -112 -60 -153 -17 -41
43 -49 83 -26 126 17 33 18 39 4 59 -24 38 -6 101 36 123 16 8 27 19 24 23 -2
5 2 14 10 21 11 9 14 23 9 47 -17 89 81 158 153 108 19 -14 22 -13 33 14 14
34 68 87 95 94 39 9 86 7 118 -7z"/>
<path d="M570 2381 c0 -10 9 -26 20 -36 20 -18 20 -17 20 12 0 22 -6 32 -20
36 -14 4 -20 0 -20 -12z"/>
<path d="M720 2334 c0 -52 1 -55 18 -43 45 36 55 72 23 89 -35 18 -41 12 -41
-46z"/>
<path d="M453 2330 c-25 -10 -31 -30 -9 -30 7 0 28 -3 46 -7 l33 -6 -19 26
c-21 29 -20 29 -51 17z"/>
<path d="M772 2221 c-60 -44 -58 -51 8 -29 63 22 69 28 46 47 -10 8 -22 4 -54
-18z"/>
<path d="M420 2218 l-35 -11 38 -8 c21 -5 58 -23 83 -39 41 -29 44 -29 44 -11
0 20 -43 71 -60 71 -4 0 -14 2 -22 4 -7 2 -29 -1 -48 -6z"/>
<path d="M1000 1254 c-362 -94 -539 -479 -374 -813 112 -227 384 -353 636
-295 144 34 300 152 367 278 94 175 92 398 -6 565 -64 110 -187 208 -316 253
-79 26 -229 33 -307 12z m271 -138 c97 -39 184 -135 210 -228 5 -21 14 -38 19
-38 15 0 12 62 -5 110 -21 59 -19 60 13 9 44 -69 62 -124 62 -189 0 -79 -24
-126 -105 -214 -36 -39 -65 -73 -65 -77 0 -17 104 24 147 57 41 31 41 22 1
-46 -25 -41 -45 -61 -78 -77 -43 -22 -61 -26 -172 -37 -72 -7 -108 -32 -75
-53 16 -10 17 -10 90 -12 l62 -2 -33 -14 c-99 -43 -342 -59 -414 -27 -128 57
-182 224 -110 342 54 88 132 116 269 95 56 -8 88 0 155 42 52 32 57 30 47 -18
-15 -64 -36 -98 -85 -132 -70 -49 -70 -107 0 -107 66 0 106 55 106 147 0 41 6
68 21 92 11 18 22 32 24 30 2 -2 0 -23 -5 -46 -10 -55 7 -84 32 -56 9 10 23
42 31 71 15 48 15 52 -1 52 -24 0 -87 40 -111 72 -12 14 -24 41 -27 60 l-6 33
21 -32 c37 -58 67 -35 48 37 -20 78 -71 98 -147 59 -29 -15 -50 -19 -75 -15
-49 10 -51 22 -2 25 111 6 77 67 -48 87 -27 4 -53 9 -57 10 -5 1 -16 3 -25 4
-42 6 59 17 137 15 65 -2 100 -9 151 -29z m-293 -39 c28 -22 3 -64 -35 -58 -6
1 -24 -14 -40 -34 l-28 -35 -5 26 -5 26 -37 -26 c-46 -31 -48 -22 -5 40 48 71
110 96 155 61z m111 -128 l33 -20 20 20 c22 24 51 27 68 6 19 -23 8 -49 -29
-67 -32 -16 -36 -16 -63 0 -15 9 -28 19 -28 23 0 3 -12 18 -26 33 -32 31 -22
34 25 5z"/>
<path d="M2735 1257 c-218 -57 -375 -219 -425 -440 -16 -71 -6 -224 19 -295
49 -143 154 -263 286 -328 278 -137 605 -32 758 243 52 93 76 258 55 373 -15
82 -77 207 -136 271 -112 122 -235 179 -402 185 -66 2 -124 -1 -155 -9z m323
-158 c35 -17 61 -36 59 -42 -2 -6 -25 -26 -51 -44 -58 -40 -36 -44 42 -8 l52
24 40 -52 c56 -76 81 -137 87 -222 10 -125 -16 -156 -151 -181 -38 -8 -73 -19
-78 -26 -5 -7 -8 -62 -7 -123 3 -171 4 -165 -31 -165 -32 0 -36 10 -31 72 2
29 -14 68 -29 68 -5 0 -10 -14 -12 -30 -2 -22 -12 -37 -35 -51 l-33 -21 0 54
c0 41 -4 55 -14 55 -11 0 -17 -18 -22 -64 -6 -57 -9 -63 -29 -63 -19 0 -24 8
-35 60 -7 33 -17 63 -21 66 -13 7 -26 -35 -24 -76 3 -48 -3 -60 -31 -60 -28 0
-41 23 -39 65 2 17 5 69 9 116 7 105 3 110 -101 129 -105 19 -135 54 -134 157
1 102 49 212 123 283 l33 32 10 -47 c10 -46 13 -48 55 -60 25 -6 56 -15 70
-19 15 -5 5 5 -24 26 -38 26 -53 44 -64 78 -15 43 -15 44 13 65 76 61 281 63
403 4z"/>
<path d="M2585 841 c-70 -29 -105 -154 -52 -183 23 -12 176 -21 220 -12 72 15
25 144 -70 193 -25 13 -69 13 -98 2z"/>
<path d="M3037 827 c-19 -12 -45 -35 -57 -50 -26 -33 -38 -101 -21 -120 13
-17 179 -21 229 -5 88 27 26 186 -76 194 -27 1 -51 -5 -75 -19z"/>
<path d="M2816 651 c-10 -18 -17 -61 -19 -108 l-2 -78 42 3 c23 2 51 -2 63 -8
24 -13 33 2 33 59 1 31 -41 167 -48 159 -2 -2 -6 -39 -10 -83 -10 -120 -20
-120 -30 0 -3 43 -8 81 -10 83 -2 2 -11 -10 -19 -27z"/>
</g>
</svg>
